<svg width="550" height="140" viewBox="0 0 550 140" fill="none" xmlns="http://www.w3.org/2000/svg">
<path d="M116.768 7.23291C116.768 6.12834 117.664 5.23291 118.768 5.23291H244.768C245.873 5.23291 246.768 6.12834 246.768 7.23291V133.233C246.768 134.337 245.873 135.233 244.768 135.233H118.768C117.664 135.233 116.768 134.337 116.768 133.233V7.23291Z" fill="white"/>
<path d="M266.768 70.2329C266.768 34.3344 295.87 5.23291 331.768 5.23291C367.667 5.23291 396.768 34.3344 396.768 70.2329C396.768 106.131 367.667 135.233 331.768 135.233C295.87 135.233 266.768 106.131 266.768 70.2329Z" fill="white"/>
<path fill-rule="evenodd" clip-rule="evenodd" d="M371.605 61.6973C364.221 68.2884 352.505 72.7192 339.083 72.7192C326.459 72.7192 315.327 68.7973 307.9 62.8312L303.516 68.2885C312.358 75.3908 325.099 79.7192 339.083 79.7192C353.93 79.7192 367.396 74.8375 376.267 66.9196L371.605 61.6973Z" fill="black"/>
<path fill-rule="evenodd" clip-rule="evenodd" d="M354.416 57.3503L354.416 39.3503L347.416 39.3503L347.416 57.3503L354.416 57.3503Z" fill="black"/>
<path fill-rule="evenodd" clip-rule="evenodd" d="M334.412 57.3513L334.412 39.3513L327.412 39.3513L327.412 57.3513L334.412 57.3513Z" fill="black"/>
<path d="M470.092 8.23291C470.861 6.89957 472.786 6.89958 473.556 8.23291L545.147 132.233C545.917 133.566 544.955 135.233 543.415 135.233H400.232C398.693 135.233 397.73 133.566 398.5 132.233L470.092 8.23291Z" fill="white"/>
<path fill-rule="evenodd" clip-rule="evenodd" d="M20.5579 135.233C21.2724 135.233 21.9326 134.852 22.2899 134.233L95.036 8.23291C95.8058 6.89957 94.8436 5.23291 93.304 5.23291H79.3311C78.6166 5.23291 77.9563 5.6141 77.5991 6.23291L4.85293 132.233C4.08313 133.566 5.04538 135.233 6.58498 135.233H20.5579Z" fill="white"/>
</svg>
